<svg id="ebb6d7e3-f843-43df-ba7d-39eeec4d1a92" data-name="Слой 1" xmlns="http://www.w3.org/2000/svg" viewBox="0 0 31.3 32"><defs><style>.\34 5933e44-5b9f-4d92-905a-0de43fccd671,.e82c435f-596d-4118-976d-3d9f99326878{fill:#291a43;}.\34 51e5f04-7958-4304-86e9-b77229be5063{fill:#2f1f4f;}.\35 737aa04-ec5c-49b3-baeb-ee03ee39f4bb{fill:#fff;}.\34 5933e44-5b9f-4d92-905a-0de43fccd671{opacity:0.83;isolation:isolate;}</style></defs><title>lpunity-logo</title><circle class="e82c435f-596d-4118-976d-3d9f99326878" cx="15.8" cy="16.01" r="15.03"/><path class="451e5f04-7958-4304-86e9-b77229be5063" d="M1,15.3a.7.7,0,0,1,0,1.4c-.4.1-.7-.3-.7-.7a.68.68,0,0,1,.65939-.7q.0203-.00061.04061,0H1"/><path class="5737aa04-ec5c-49b3-baeb-ee03ee39f4bb" d="M7.1,15.3a.7.7,0,1,1-.7.7h0a.68.68,0,0,1,.65941-.7l.00059,0h0"/><path class="451e5f04-7958-4304-86e9-b77229be5063" d="M1.6,11.6a.32.32,0,0,0-.3.3.27.27,0,0,0,.23669.29963L1.54,12.2H1.6a.27.27,0,0,0,.3-.3q-.15-.3-.3-.3"/><path class="5737aa04-ec5c-49b3-baeb-ee03ee39f4bb" d="M15.8,15.3a.7.7,0,1,1-.7.7h0a.68.68,0,0,1,.65941-.7l.00059,0h0"/><path class="5737aa04-ec5c-49b3-baeb-ee03ee39f4bb" d="M15.8,6.5a.7.7,0,1,1-.7.7h0a.75.75,0,0,1,.7-.7"/><path class="451e5f04-7958-4304-86e9-b77229be5063" d="M15.8.4a.68.68,0,0,1,.7.65941l0,.00059h0a.7.7,0,0,1-1.4,0h0a.68.68,0,0,1,.65941-.7L15.76.36h0"/><path class="5737aa04-ec5c-49b3-baeb-ee03ee39f4bb" d="M5.3,10.9a.68.68,0,0,1,.7.65941L6,11.56H6a.77.77,0,0,1-.7.8.68.68,0,0,1-.7-.65941L4.6,11.7h0a.71.71,0,0,1,.61-.79H5.3"/><path class="5737aa04-ec5c-49b3-baeb-ee03ee39f4bb" d="M9.6,9.1a.7.7,0,1,1-.7.7h0a.68.68,0,0,1,.65941-.7L9.56,9.1h0"/><path class="451e5f04-7958-4304-86e9-b77229be5063" d="M5.3,4.8a.7.7,0,1,1-.7.7h0a.68.68,0,0,1,.65941-.7L5.26,4.8h0"/><path class="5737aa04-ec5c-49b3-baeb-ee03ee39f4bb" d="M11.4,4.7a.7.7,0,1,1-.7.7h0a.68.68,0,0,1,.65941-.7l.00059,0h0"/><path class="451e5f04-7958-4304-86e9-b77229be5063" d="M10.1,1.5a.68.68,0,0,1,.7.65941l0,.00059h0a.68.68,0,0,1-.65941.7l-.00059,0h0c-.4,0-.7-.2-.7-.6a.77.77,0,0,1,.7-.8"/><path class="451e5f04-7958-4304-86e9-b77229be5063" d="M2.1,9.6A.7.7,0,1,1,2.101,11H2.1a.7.7,0,1,1-.001-1.4H2.1"/><path class="5737aa04-ec5c-49b3-baeb-ee03ee39f4bb" d="M3.7,10.7a.32.32,0,0,0-.3.3.27.27,0,0,0,.23669.29963L3.64,11.3H3.7a.3.3,0,0,0,0-.6"/><path class="451e5f04-7958-4304-86e9-b77229be5063" d="M1.3,12.8a.3.3,0,1,0,0,.6h0a.27.27,0,0,0,.3-.3.32.32,0,0,0-.3-.3"/><path class="451e5f04-7958-4304-86e9-b77229be5063" d="M1.1,14.1a.32.32,0,0,0-.3.3.27.27,0,0,0,.23669.29963L1.04,14.7H1.1c.2,0,.2-.2.2-.3s-.1-.3-.2-.3"/><path class="5737aa04-ec5c-49b3-baeb-ee03ee39f4bb" d="M8.3,12.7c-.1.1-.2.2-.1.3s.2.2.3.1.2-.2.1-.3a.19.19,0,0,0-.23-.13H8.3"/><path class="5737aa04-ec5c-49b3-baeb-ee03ee39f4bb" d="M8.8,11.3c-.1.1-.2.2-.1.3s.2.2.3.1.2-.2.1-.3-.1-.1-.3-.1"/><path class="5737aa04-ec5c-49b3-baeb-ee03ee39f4bb" d="M7.7,14c-.1.1-.2.2-.1.3s.2.2.3.1.2-.2.1-.3-.1-.1-.3-.1"/><path class="5737aa04-ec5c-49b3-baeb-ee03ee39f4bb" d="M6.2,13.3a.19.19,0,0,0,.0013-.2687L6.2,13.03,6.1,13a.22.22,0,1,0,.1.3"/><path class="5737aa04-ec5c-49b3-baeb-ee03ee39f4bb" d="M6.7,14.5a.22361.22361,0,1,0-.4-.2h0a.22361.22361,0,1,0,.4.2"/><path class="5737aa04-ec5c-49b3-baeb-ee03ee39f4bb" d="M3.1,13.5a.32.32,0,0,0-.3.3.27.27,0,0,0,.23669.29963L3.04,14.1H3.1a.3.3,0,1,0,0-.6"/><path class="5737aa04-ec5c-49b3-baeb-ee03ee39f4bb" d="M4.2,12.5a.3.3,0,1,0,.3.3q-.15-.3-.3-.3"/><path class="5737aa04-ec5c-49b3-baeb-ee03ee39f4bb" d="M2.1,14.6a.3.3,0,0,0,0,.6h0a.32.32,0,0,0,.3-.3.27.27,0,0,0-.23669-.29963L2.16,14.6H2.1"/><path class="451e5f04-7958-4304-86e9-b77229be5063" d="M4.3,6.5a.22361.22361,0,0,0-.2.4.19.19,0,0,0,.3-.1c.1-.1,0-.2-.1-.3"/><path class="451e5f04-7958-4304-86e9-b77229be5063" d="M3.6,7.5c-.2,0-.3,0-.4.2s0,.3.1.3.3,0,.3-.1c.2-.2.1-.3,0-.4"/><path class="451e5f04-7958-4304-86e9-b77229be5063" d="M2.9,8.6a.19.19,0,0,0-.3.1.19.19,0,0,0-.0013.2687L2.6,8.97,2.7,9A.19.19,0,0,0,3,8.9c.1-.1,0-.2-.1-.3"/><path class="5737aa04-ec5c-49b3-baeb-ee03ee39f4bb" d="M5.1,8.4a.28.28,0,1,0,.004-.004L5.1,8.4h0"/><path class="5737aa04-ec5c-49b3-baeb-ee03ee39f4bb" d="M5.1,6.9a.28.28,0,1,0,.004-.004L5.1,6.9"/><path class="5737aa04-ec5c-49b3-baeb-ee03ee39f4bb" d="M5.2,9.9a.28284.28284,0,0,0,.4.4.3.3,0,0,0,0-.4c-.2-.1-.3-.1-.4,0"/><path class="451e5f04-7958-4304-86e9-b77229be5063" d="M8.8,2.8a.28284.28284,0,0,0-.4.4h0a.28284.28284,0,0,0,.4-.4"/><path class="451e5f04-7958-4304-86e9-b77229be5063" d="M7.7,3.5a.19.19,0,0,0-.2687-.0013L7.43,3.5h0a.19.19,0,0,0-.0013.2687L7.43,3.77h0a.3.3,0,0,0,.4,0,.37.37,0,0,0-.1-.3"/><path class="451e5f04-7958-4304-86e9-b77229be5063" d="M6.7,4.2a.28.28,0,1,0,.004.004L6.7,4.2"/><path class="451e5f04-7958-4304-86e9-b77229be5063" d="M14.4,1.2c-.1-.1-.2-.2-.3-.1s-.2.2-.1.3.2.2.3.1a.37.37,0,0,0,.1-.3"/><path class="451e5f04-7958-4304-86e9-b77229be5063" d="M13.1,1.3c-.1-.1-.2-.2-.3-.1s-.2.2-.1.3.2.2.3.1.2-.1.1-.3"/><path class="451e5f04-7958-4304-86e9-b77229be5063" d="M11.9,1.6c-.1-.1-.2-.2-.3-.1s-.2.2-.1.3.2.2.3.1.1-.1.1-.3"/><path class="5737aa04-ec5c-49b3-baeb-ee03ee39f4bb" d="M8.2,5.7a.28284.28284,0,0,0,.4-.4c-.2-.1-.3-.1-.4,0a.3.3,0,0,0,0,.4"/><path class="5737aa04-ec5c-49b3-baeb-ee03ee39f4bb" d="M6.7,5.7a.28.28,0,1,0-.004-.004L6.7,5.7"/><path class="5737aa04-ec5c-49b3-baeb-ee03ee39f4bb" d="M9.6,5.7a.28.28,0,1,0-.004-.004L9.6,5.7h0"/><path class="5737aa04-ec5c-49b3-baeb-ee03ee39f4bb" d="M7,10.7a.22.22,0,1,0,.1.3.37.37,0,0,0-.1-.3"/><path class="5737aa04-ec5c-49b3-baeb-ee03ee39f4bb" d="M8.1,10.3a.22361.22361,0,1,0-.2.4c.1,0,.3,0,.3-.1s.1-.3-.1-.3"/><path class="5737aa04-ec5c-49b3-baeb-ee03ee39f4bb" d="M12.8,8.3a.22.22,0,1,0,.00651.00325L12.8,8.3"/><path class="5737aa04-ec5c-49b3-baeb-ee03ee39f4bb" d="M14.2,7.7a.22361.22361,0,1,0-.2.4h0a.19.19,0,0,0,.3-.1c.1-.1,0-.2-.1-.3"/><path class="5737aa04-ec5c-49b3-baeb-ee03ee39f4bb" d="M11.5,8.9a.22.22,0,1,0,.00651.00325L11.5,8.9"/><path class="5737aa04-ec5c-49b3-baeb-ee03ee39f4bb" d="M10.2,8a.19.19,0,0,0-.1.3c.1.1.2.2.3.1s.2-.2.1-.3a.19.19,0,0,0-.23-.1H10.2"/><path class="5737aa04-ec5c-49b3-baeb-ee03ee39f4bb" d="M10.7,6.8c-.1.1-.2.2-.1.3s.2.2.3.1.2-.2.1-.3a.37.37,0,0,0-.3-.1"/><path class="5737aa04-ec5c-49b3-baeb-ee03ee39f4bb" d="M13.2,6c-.1-.1-.2-.2-.3-.1s-.2.2-.1.3.2.2.3.2.2-.2.1-.4"/><path class="5737aa04-ec5c-49b3-baeb-ee03ee39f4bb" d="M14.4,6.5a.19.19,0,0,0-.23-.13H14.1c-.1.1-.2.2-.1.3s.2.2.3.1a.19.19,0,0,0,.1-.3"/><path class="5737aa04-ec5c-49b3-baeb-ee03ee39f4bb" d="M13.6,3.6a.32.32,0,0,0,.3-.3.3.3,0,1,0-.6,0q.15.3.3.3"/><path class="5737aa04-ec5c-49b3-baeb-ee03ee39f4bb" d="M12.6,4.6a.3.3,0,1,0-.3-.3.27.27,0,0,0,.23669.29963L12.54,4.6h.06"/><path class="5737aa04-ec5c-49b3-baeb-ee03ee39f4bb" d="M14.6,2.5a.32.32,0,0,0,.3-.3.3.3,0,1,0-.6,0q.15.3.3.3"/><path class="5737aa04-ec5c-49b3-baeb-ee03ee39f4bb" d="M11.8,12.3a.3.3,0,1,0,.3-.3.32.32,0,0,0-.3.3"/><path class="5737aa04-ec5c-49b3-baeb-ee03ee39f4bb" d="M10.8,11.3a.3.3,0,1,0,.3-.3.27.27,0,0,0-.3.3"/><path class="5737aa04-ec5c-49b3-baeb-ee03ee39f4bb" d="M12.9,13.3a.3.3,0,1,0,.3-.3.32.32,0,0,0-.3.3"/><path class="5737aa04-ec5c-49b3-baeb-ee03ee39f4bb" d="M14,14.4a.3.3,0,1,0,.3-.3q-.3.15-.3.3"/><path class="451e5f04-7958-4304-86e9-b77229be5063" d="M30.6,15.3a.7.7,0,1,0,.7.7.68.68,0,0,0-.65941-.7l-.00059,0h0"/><path class="5737aa04-ec5c-49b3-baeb-ee03ee39f4bb" d="M24.5,15.3a.7.7,0,1,0,.7.7.68.68,0,0,0-.65941-.7l-.00059,0h0"/><path class="451e5f04-7958-4304-86e9-b77229be5063" d="M30,11.6a.32.32,0,0,1,.3.3.3.3,0,1,1-.6,0,.32.32,0,0,1,.3-.3"/><path class="5737aa04-ec5c-49b3-baeb-ee03ee39f4bb" d="M26.3,10.9a.68.68,0,0,0-.7.65941l0,.00059h0a.77.77,0,0,0,.7.8.68.68,0,0,0,.7-.65941L27,11.7h0a.71.71,0,0,0-.61-.79H26.3"/><path class="5737aa04-ec5c-49b3-baeb-ee03ee39f4bb" d="M22,9.1a.7.7,0,1,0,.7.7.68.68,0,0,0-.65939-.7Q22.02031,9.0994,22,9.1h0"/><path class="451e5f04-7958-4304-86e9-b77229be5063" d="M26.3,4.8a.7.7,0,1,0,.7.7.68.68,0,0,0-.65941-.7L26.34,4.8h0"/><path class="5737aa04-ec5c-49b3-baeb-ee03ee39f4bb" d="M20.2,4.7a.7.7,0,1,0,.7.7.68.68,0,0,0-.65941-.7L20.24,4.7h0"/><path class="451e5f04-7958-4304-86e9-b77229be5063" d="M21.5,1.5a.68.68,0,0,0-.7.65941l0,.00059h0a.7.7,0,0,0,1.4,0,.75.75,0,0,0-.7-.7"/><path class="451e5f04-7958-4304-86e9-b77229be5063" d="M29.5,9.6a.7.7,0,1,0,.7.7.68.68,0,0,0-.65941-.7L29.54,9.6h0"/><path class="5737aa04-ec5c-49b3-baeb-ee03ee39f4bb" d="M27.9,10.7a.32.32,0,0,1,.3.3.27.27,0,0,1-.23669.29963L27.96,11.3H27.9a.32.32,0,0,1-.3-.3.27.27,0,0,1,.23669-.29963L27.84,10.7h.06"/><path class="451e5f04-7958-4304-86e9-b77229be5063" d="M30.3,12.8a.3.3,0,0,1,0,.6.27.27,0,0,1-.3-.3q.15-.3.3-.3"/><path class="451e5f04-7958-4304-86e9-b77229be5063" d="M30.5,14.1a.32.32,0,0,1,.3.3.27.27,0,0,1-.23669.29963L30.56,14.7H30.5c-.2,0-.2-.2-.2-.3s.1-.3.2-.3"/><path class="5737aa04-ec5c-49b3-baeb-ee03ee39f4bb" d="M23.3,12.7c.1.1.2.2.1.3s-.2.2-.3.1-.2-.2-.1-.3a.19.19,0,0,1,.23-.13h.07"/><path class="5737aa04-ec5c-49b3-baeb-ee03ee39f4bb" d="M22.8,11.3c.1.1.2.2.1.3s-.2.2-.3.1-.2-.2-.1-.3.1-.1.3-.1"/><path class="5737aa04-ec5c-49b3-baeb-ee03ee39f4bb" d="M23.9,14c.1.1.2.2.1.3s-.2.2-.3.1-.2-.2-.1-.3.1-.1.3-.1"/><path class="5737aa04-ec5c-49b3-baeb-ee03ee39f4bb" d="M25.4,13.3a.22.22,0,1,1,.3.1.19.19,0,0,1-.3-.1"/><path class="5737aa04-ec5c-49b3-baeb-ee03ee39f4bb" d="M24.9,14.5a.22.22,0,1,1,.3.1.19.19,0,0,1-.3-.1"/><path class="5737aa04-ec5c-49b3-baeb-ee03ee39f4bb" d="M28.5,13.5a.32.32,0,0,1,.3.3.27.27,0,0,1-.23669.29963L28.56,14.1H28.5a.3.3,0,0,1,0-.6"/><path class="5737aa04-ec5c-49b3-baeb-ee03ee39f4bb" d="M27.4,12.5a.3.3,0,1,1-.3.3h0a.32.32,0,0,1,.3-.3"/><path class="5737aa04-ec5c-49b3-baeb-ee03ee39f4bb" d="M29.5,14.6a.3.3,0,1,1-.3.3h0a.27.27,0,0,1,.23669-.29963L29.44,14.6h.06"/><path class="451e5f04-7958-4304-86e9-b77229be5063" d="M27.3,6.5a.22361.22361,0,1,1,.2.4.19.19,0,0,1-.3-.1c-.1-.1,0-.2.1-.3"/><path class="451e5f04-7958-4304-86e9-b77229be5063" d="M28,7.5a.22361.22361,0,1,1,.2.4h0a.19.19,0,0,1-.3-.1c-.1-.1,0-.2.1-.3"/><path class="451e5f04-7958-4304-86e9-b77229be5063" d="M28.7,8.6a.22361.22361,0,0,1,.2.4.19.19,0,0,1-.3-.1c-.1-.1,0-.2.1-.3"/><path class="5737aa04-ec5c-49b3-baeb-ee03ee39f4bb" d="M26.5,8.4a.28.28,0,1,1-.4,0,.3.3,0,0,1,.4,0"/><path class="5737aa04-ec5c-49b3-baeb-ee03ee39f4bb" d="M26.5,6.9a.28.28,0,1,1-.4,0,.3.3,0,0,1,.4,0"/><path class="5737aa04-ec5c-49b3-baeb-ee03ee39f4bb" d="M26.4,9.9a.28.28,0,1,1-.4,0c.2-.1.3-.1.4,0"/><path class="451e5f04-7958-4304-86e9-b77229be5063" d="M22.8,2.8a.28284.28284,0,0,1,.4.4h0a.28284.28284,0,0,1-.4-.4"/><path class="451e5f04-7958-4304-86e9-b77229be5063" d="M23.9,3.5a.28284.28284,0,0,1,.4.4h0a.3.3,0,0,1-.4,0c-.1-.2-.1-.3,0-.4"/><path class="451e5f04-7958-4304-86e9-b77229be5063" d="M24.9,4.2a.28284.28284,0,0,1,.4.4h0a.28284.28284,0,0,1-.4-.4"/><path class="451e5f04-7958-4304-86e9-b77229be5063" d="M17.2,1.2c.1-.1.2-.2.3-.1s.2.2.1.3-.2.2-.3.1a.37.37,0,0,1-.1-.3"/><path class="451e5f04-7958-4304-86e9-b77229be5063" d="M18.5,1.3c.1-.1.2-.2.3-.1s.2.2.1.3-.2.2-.3.1-.2-.1-.1-.3"/><path class="451e5f04-7958-4304-86e9-b77229be5063" d="M19.7,1.6c.1-.1.2-.2.3-.1s.2.2.1.3-.2.2-.3.1-.1-.1-.1-.3"/><path class="5737aa04-ec5c-49b3-baeb-ee03ee39f4bb" d="M23.4,5.7a.28.28,0,1,1,.004-.004L23.4,5.7h0"/><path class="5737aa04-ec5c-49b3-baeb-ee03ee39f4bb" d="M24.9,5.7a.28.28,0,1,1,.004-.004L24.9,5.7h0"/><path class="5737aa04-ec5c-49b3-baeb-ee03ee39f4bb" d="M22,5.7a.28.28,0,1,1,.004-.004L22,5.7h0"/><path class="5737aa04-ec5c-49b3-baeb-ee03ee39f4bb" d="M24.6,10.7a.19.19,0,0,1,.3.1c0,.1,0,.3-.1.3a.19.19,0,0,1-.3-.1.37.37,0,0,1,.1-.3"/><path class="5737aa04-ec5c-49b3-baeb-ee03ee39f4bb" d="M23.5,10.3a.19.19,0,0,1,.3.1c0,.1,0,.3-.1.3s-.3,0-.3-.1-.1-.3.1-.3"/><path class="5737aa04-ec5c-49b3-baeb-ee03ee39f4bb" d="M18.8,8.3a.22361.22361,0,0,1,.2.4h0a.22361.22361,0,0,1-.2-.4"/><path class="5737aa04-ec5c-49b3-baeb-ee03ee39f4bb" d="M17.4,7.7a.22361.22361,0,0,1,.2.4h0a.19.19,0,0,1-.3-.1.37.37,0,0,1,.1-.3"/><path class="5737aa04-ec5c-49b3-baeb-ee03ee39f4bb" d="M20.1,8.9a.22.22,0,1,1-.00651.00325L20.1,8.9h0"/><path class="5737aa04-ec5c-49b3-baeb-ee03ee39f4bb" d="M21.4,8c.1.1.2.2.1.3s-.2.2-.3.1-.2-.2-.1-.3a.19.19,0,0,1,.23-.1h.07"/><path class="5737aa04-ec5c-49b3-baeb-ee03ee39f4bb" d="M20.9,6.8c.1.1.2.2.1.3s-.2.2-.3.1-.2-.2-.1-.3a.37.37,0,0,1,.3-.1"/><path class="5737aa04-ec5c-49b3-baeb-ee03ee39f4bb" d="M18.4,6c.1-.1.2-.2.3-.1s.2.2.1.3-.2.2-.3.2-.2-.2-.1-.4"/><path class="5737aa04-ec5c-49b3-baeb-ee03ee39f4bb" d="M17.2,6.5a.19.19,0,0,1,.23-.13h.07c.1.1.2.2.1.3s-.2.2-.3.1a.19.19,0,0,1-.1-.3"/><path class="5737aa04-ec5c-49b3-baeb-ee03ee39f4bb" d="M18,3.6a.32.32,0,0,1-.3-.3.27.27,0,0,1,.23669-.29963L17.94,3H18a.32.32,0,0,1,.3.3q-.15.3-.3.3"/><path class="5737aa04-ec5c-49b3-baeb-ee03ee39f4bb" d="M19,4.6a.3.3,0,1,1,.3-.3h0a.27.27,0,0,1-.23669.29963L19.06,4.6H19"/><path class="5737aa04-ec5c-49b3-baeb-ee03ee39f4bb" d="M17,2.5a.32.32,0,0,1-.3-.3.3.3,0,1,1,.6,0q-.15.3-.3.3"/><path class="5737aa04-ec5c-49b3-baeb-ee03ee39f4bb" d="M19.8,12.3a.3.3,0,1,1-.3-.3h0a.32.32,0,0,1,.3.3"/><path class="5737aa04-ec5c-49b3-baeb-ee03ee39f4bb" d="M20.8,11.3a.3.3,0,1,1-.3-.3h0a.27.27,0,0,1,.3.3"/><path class="5737aa04-ec5c-49b3-baeb-ee03ee39f4bb" d="M18.7,13.3a.3.3,0,1,1-.3-.3h0q.3.15.3.3"/><path class="5737aa04-ec5c-49b3-baeb-ee03ee39f4bb" d="M17.6,14.4a.3.3,0,1,1-.3-.3h0q.3.15.3.3"/><path class="451e5f04-7958-4304-86e9-b77229be5063" d="M1.6,20.4c-.2,0-.3-.1-.3-.2a.32.32,0,0,1,.3-.3.27.27,0,0,1,.3.3c0,.2-.2.2-.3.2"/><path class="5737aa04-ec5c-49b3-baeb-ee03ee39f4bb" d="M15.8,25.5a.7.7,0,1,0-.7-.7.68.68,0,0,0,.65941.7l.00059,0h0"/><path class="451e5f04-7958-4304-86e9-b77229be5063" d="M15.8,31.6a.7.7,0,1,0-.7-.7.68.68,0,0,0,.65941.7l.00059,0h0"/><path class="5737aa04-ec5c-49b3-baeb-ee03ee39f4bb" d="M5.3,21.1a.7.7,0,1,0-.7-.7.68.68,0,0,0,.65941.7l.00059,0h0"/><path class="5737aa04-ec5c-49b3-baeb-ee03ee39f4bb" d="M9.6,22.9a.68.68,0,0,0,.7-.65941l0-.00059h0a.77.77,0,0,0-.7-.8.68.68,0,0,0-.7.65941L8.9,22.1h0a.77.77,0,0,0,.7.8"/><path class="451e5f04-7958-4304-86e9-b77229be5063" d="M5.3,27.3a.7.7,0,1,0-.7-.7.75.75,0,0,0,.7.7"/><path class="5737aa04-ec5c-49b3-baeb-ee03ee39f4bb" d="M11.4,27.3a.7.7,0,1,0-.7-.7.68.68,0,0,0,.65941.7l.00059,0h0"/><path class="451e5f04-7958-4304-86e9-b77229be5063" d="M10.1,30.5a.7.7,0,1,0-.7-.7.68.68,0,0,0,.65941.7l.00059,0h0"/><path class="451e5f04-7958-4304-86e9-b77229be5063" d="M2.1,22.5a.7.7,0,1,0-.7-.7.7.7,0,0,0,.7.7h0"/><path class="5737aa04-ec5c-49b3-baeb-ee03ee39f4bb" d="M3.7,21.3a.3.3,0,1,1,0-.6h0a.3.3,0,0,1,0,.6"/><path class="451e5f04-7958-4304-86e9-b77229be5063" d="M1.3,19.2a.32.32,0,0,1-.3-.3.27.27,0,0,1,.23669-.29963L1.24,18.6H1.3a.27.27,0,0,1,.3.3q-.15.3-.3.3"/><path class="451e5f04-7958-4304-86e9-b77229be5063" d="M1.1,17.9a.32.32,0,0,1-.3-.3c0-.2.1-.2.3-.2s.2.1.2.3a.22.22,0,0,1-.2.2"/><path class="5737aa04-ec5c-49b3-baeb-ee03ee39f4bb" d="M8.3,19.4c-.1-.1-.2-.2-.1-.3s.2-.2.3-.1.2.2.1.3a.37.37,0,0,1-.3.1"/><path class="5737aa04-ec5c-49b3-baeb-ee03ee39f4bb" d="M8.8,20.7c-.1-.1-.2-.2-.1-.3s.2-.2.3-.1.2.2.1.3-.1.2-.3.1"/><path class="5737aa04-ec5c-49b3-baeb-ee03ee39f4bb" d="M7.7,18c-.1-.1-.2-.2-.1-.3s.2-.2.3-.1.2.2.1.3-.1.2-.3.1"/><path class="5737aa04-ec5c-49b3-baeb-ee03ee39f4bb" d="M6.2,18.7a.19.19,0,0,1,.0013.2687L6.2,18.97,6.1,19a.22.22,0,1,1,.1-.3"/><path class="5737aa04-ec5c-49b3-baeb-ee03ee39f4bb" d="M6.7,17.5a.22.22,0,1,1-.00325-.00651L6.7,17.5"/><path class="5737aa04-ec5c-49b3-baeb-ee03ee39f4bb" d="M3.1,18.5a.3.3,0,1,1,0-.6h0a.32.32,0,0,1,.3.3.27.27,0,0,1-.23669.29963L3.16,18.5H3.1"/><path class="5737aa04-ec5c-49b3-baeb-ee03ee39f4bb" d="M4.2,19.5a.3.3,0,1,1,0-.6h0a.27.27,0,0,1,.3.3q-.15.3-.3.3"/><path class="5737aa04-ec5c-49b3-baeb-ee03ee39f4bb" d="M2.1,17.4a.3.3,0,1,1,0-.6h0a.32.32,0,0,1,.3.3.27.27,0,0,1-.23669.29963L2.16,17.4H2.1"/><path class="451e5f04-7958-4304-86e9-b77229be5063" d="M4.3,25.5a.22.22,0,1,1,.1-.3.19.19,0,0,1,.0013.2687L4.4,25.47H4.33"/><path class="451e5f04-7958-4304-86e9-b77229be5063" d="M3.6,24.5a.22.22,0,1,1,.1-.3.19.19,0,0,1,.0013.2687L3.7,24.47H3.63"/><path class="451e5f04-7958-4304-86e9-b77229be5063" d="M2.9,23.4a.19.19,0,0,1-.3-.1.19.19,0,0,1-.0013-.2687L2.6,23.03h.07a.19.19,0,0,1,.3.1.19.19,0,0,1,.0013.2687L2.97,23.4H2.9"/><path class="5737aa04-ec5c-49b3-baeb-ee03ee39f4bb" d="M5.1,23.7a.28284.28284,0,0,1,.4-.4h0a.28284.28284,0,0,1-.4.4"/><path class="5737aa04-ec5c-49b3-baeb-ee03ee39f4bb" d="M5.1,25.1a.28.28,0,1,1,.004.004L5.1,25.1"/><path class="5737aa04-ec5c-49b3-baeb-ee03ee39f4bb" d="M5.2,22.2a.28284.28284,0,0,1,.4-.4.3.3,0,0,1,0,.4c-.2.1-.3.1-.4,0"/><path class="451e5f04-7958-4304-86e9-b77229be5063" d="M8.8,29.2a.28.28,0,1,1,0-.4c.1.2.1.3,0,.4"/><path class="451e5f04-7958-4304-86e9-b77229be5063" d="M7.7,28.6a.28.28,0,1,1,0-.4.3.3,0,0,1,0,.4"/><path class="451e5f04-7958-4304-86e9-b77229be5063" d="M6.7,27.8a.28.28,0,1,1,0-.4c.1.2.1.3,0,.4"/><path class="451e5f04-7958-4304-86e9-b77229be5063" d="M14.4,30.9c-.1.1-.2.2-.3.1s-.2-.2-.1-.3.2-.2.3-.1a.37.37,0,0,1,.1.3"/><path class="451e5f04-7958-4304-86e9-b77229be5063" d="M13.1,30.7c-.1.1-.2.2-.3.1s-.2-.2-.1-.3.2-.2.3-.1a.19.19,0,0,1,.1.3"/><path class="451e5f04-7958-4304-86e9-b77229be5063" d="M11.9,30.4c-.1.1-.2.2-.3.1s-.2-.2-.1-.3.2-.2.3-.1a.37.37,0,0,1,.1.3"/><path class="5737aa04-ec5c-49b3-baeb-ee03ee39f4bb" d="M8.2,26.4a.28.28,0,1,1,0,.4c-.1-.2-.1-.3,0-.4"/><path class="5737aa04-ec5c-49b3-baeb-ee03ee39f4bb" d="M6.7,26.4a.28.28,0,1,1,0,.4c-.1-.2-.1-.3,0-.4"/><path class="5737aa04-ec5c-49b3-baeb-ee03ee39f4bb" d="M9.6,26.4a.28.28,0,1,1,0,.4c-.1-.2-.1-.3,0-.4"/><path class="5737aa04-ec5c-49b3-baeb-ee03ee39f4bb" d="M7,21.3a.22361.22361,0,0,1-.2-.4c.1,0,.3,0,.3.1a.37.37,0,0,1-.1.3"/><path class="5737aa04-ec5c-49b3-baeb-ee03ee39f4bb" d="M8.1,21.8a.22361.22361,0,0,1-.2-.4h0c.1,0,.3,0,.3.1s.1.2-.1.3"/><path class="5737aa04-ec5c-49b3-baeb-ee03ee39f4bb" d="M12.8,23.8a.22.22,0,1,1,.1-.3c.1.1,0,.2-.1.3"/><path class="5737aa04-ec5c-49b3-baeb-ee03ee39f4bb" d="M14.2,24.3a.22.22,0,1,1,.1-.3c.1.1,0,.2-.1.3"/><path class="5737aa04-ec5c-49b3-baeb-ee03ee39f4bb" d="M11.5,23.2a.22.22,0,1,1,.1-.3c.1.1,0,.2-.1.3"/><path class="5737aa04-ec5c-49b3-baeb-ee03ee39f4bb" d="M10.2,24.1c-.1-.1-.2-.2-.1-.3s.2-.2.3-.1.2.2.1.3a1,1,0,0,1-.3.1"/><path class="5737aa04-ec5c-49b3-baeb-ee03ee39f4bb" d="M10.7,25.2c-.1-.1-.2-.2-.1-.3s.2-.2.3-.1.2.2.1.3a.19.19,0,0,1-.23.13H10.7"/><path class="5737aa04-ec5c-49b3-baeb-ee03ee39f4bb" d="M13.2,26c-.1.1-.2.2-.3.1s-.2-.2-.1-.3.2-.2.3-.1a.19.19,0,0,1,.1.3"/><path class="5737aa04-ec5c-49b3-baeb-ee03ee39f4bb" d="M14.4,25.5c-.1.1-.2.2-.3.1s-.2-.2-.1-.3.2-.2.3-.1.2.2.1.3"/><path class="5737aa04-ec5c-49b3-baeb-ee03ee39f4bb" d="M13.6,28.5a.3.3,0,1,1-.3.3h0q.15-.3.3-.3"/><path class="5737aa04-ec5c-49b3-baeb-ee03ee39f4bb" d="M12.6,27.4a.3.3,0,1,1-.3.3h0a.32.32,0,0,1,.3-.3"/><path class="5737aa04-ec5c-49b3-baeb-ee03ee39f4bb" d="M14.6,29.5a.3.3,0,1,1-.3.3h0q.15-.3.3-.3"/><path class="5737aa04-ec5c-49b3-baeb-ee03ee39f4bb" d="M11.8,19.7a.3.3,0,1,1,.3.3h0a.27.27,0,0,1-.3-.3"/><path class="5737aa04-ec5c-49b3-baeb-ee03ee39f4bb" d="M10.8,20.8a.3.3,0,1,1,.3.3h0q-.3-.15-.3-.3"/><path class="5737aa04-ec5c-49b3-baeb-ee03ee39f4bb" d="M12.9,18.7a.3.3,0,1,1,.3.3h0a.27.27,0,0,1-.3-.3"/><path class="5737aa04-ec5c-49b3-baeb-ee03ee39f4bb" d="M14,17.6a.32.32,0,0,1,.3-.3.27.27,0,0,1,.3.3.32.32,0,0,1-.3.3.27.27,0,0,1-.3-.3"/><path class="451e5f04-7958-4304-86e9-b77229be5063" d="M30,20.4a.32.32,0,0,0,.3-.3.3.3,0,1,0-.6,0h0a.32.32,0,0,0,.3.3"/><path class="5737aa04-ec5c-49b3-baeb-ee03ee39f4bb" d="M26.3,21.1a.7.7,0,1,1,.7-.7.68.68,0,0,1-.65941.7l-.00059,0h0"/><path class="5737aa04-ec5c-49b3-baeb-ee03ee39f4bb" d="M22,22.9a.7.7,0,1,1,.7-.7.68.68,0,0,1-.65941.7l-.00059,0h0"/><path class="451e5f04-7958-4304-86e9-b77229be5063" d="M26.3,27.3a.7.7,0,1,1,.7-.7.75.75,0,0,1-.7.7"/><path class="5737aa04-ec5c-49b3-baeb-ee03ee39f4bb" d="M20.2,27.3a.7.7,0,1,1,.7-.7.68.68,0,0,1-.65941.7l-.00059,0h0"/><path class="451e5f04-7958-4304-86e9-b77229be5063" d="M21.5,30.5a.7.7,0,1,1,.7-.7.68.68,0,0,1-.65941.7l-.00059,0h0"/><path class="451e5f04-7958-4304-86e9-b77229be5063" d="M29.5,22.5a.7.7,0,1,1,.7-.7.68.68,0,0,1-.65941.7l-.00059,0h0"/><path class="5737aa04-ec5c-49b3-baeb-ee03ee39f4bb" d="M27.9,21.3a.3.3,0,1,0-.3-.3h0a.27.27,0,0,0,.23669.29963L27.84,21.3h.06"/><path class="451e5f04-7958-4304-86e9-b77229be5063" d="M30.3,19.2a.32.32,0,0,0,.3-.3.3.3,0,1,0-.6,0h0q.15.3.3.3"/><path class="451e5f04-7958-4304-86e9-b77229be5063" d="M30.5,17.9a.32.32,0,0,0,.3-.3c0-.2-.1-.2-.3-.2s-.2.1-.2.3.1.2.2.2"/><path class="5737aa04-ec5c-49b3-baeb-ee03ee39f4bb" d="M23.3,19.4c.1-.1.2-.2.1-.3s-.2-.2-.3-.1-.2.2-.1.3a.37.37,0,0,0,.3.1"/><path class="5737aa04-ec5c-49b3-baeb-ee03ee39f4bb" d="M22.8,20.7c.1-.1.2-.2.1-.3s-.2-.2-.3-.1-.2.2-.1.3.1.2.3.1"/><path class="5737aa04-ec5c-49b3-baeb-ee03ee39f4bb" d="M23.9,18c.1-.1.2-.2.1-.3s-.2-.2-.3-.1-.2.2-.1.3.1.2.3.1"/><path class="5737aa04-ec5c-49b3-baeb-ee03ee39f4bb" d="M25.4,18.7a.22.22,0,1,0,.3-.1c-.1,0-.3,0-.3.1"/><path class="5737aa04-ec5c-49b3-baeb-ee03ee39f4bb" d="M24.9,17.5a.22.22,0,1,0,.3-.1.19.19,0,0,0-.3.1"/><path class="5737aa04-ec5c-49b3-baeb-ee03ee39f4bb" d="M28.5,18.5a.3.3,0,1,0-.3-.3h0a.27.27,0,0,0,.23669.29963L28.44,18.5h.06"/><path class="5737aa04-ec5c-49b3-baeb-ee03ee39f4bb" d="M27.4,19.5a.3.3,0,1,0-.3-.3h0q.15.3.3.3"/><path class="5737aa04-ec5c-49b3-baeb-ee03ee39f4bb" d="M29.5,17.4a.3.3,0,1,0-.3-.3h0a.27.27,0,0,0,.23669.29963L29.44,17.4h.06"/><path class="451e5f04-7958-4304-86e9-b77229be5063" d="M27.3,25.5a.22.22,0,1,0-.1-.3.19.19,0,0,0-.0013.2687L27.2,25.47h.07"/><path class="451e5f04-7958-4304-86e9-b77229be5063" d="M28,24.5a.22.22,0,1,0-.1-.3.19.19,0,0,0-.0013.2687L27.9,24.47h.07"/><path class="451e5f04-7958-4304-86e9-b77229be5063" d="M28.7,23.4a.22.22,0,1,0-.1-.3.19.19,0,0,0-.0013.2687L28.6,23.37h.07"/><path class="5737aa04-ec5c-49b3-baeb-ee03ee39f4bb" d="M26.5,23.7a.28.28,0,1,0-.4,0,.3.3,0,0,0,.4,0"/><path class="5737aa04-ec5c-49b3-baeb-ee03ee39f4bb" d="M26.5,25.1a.28.28,0,1,0-.4,0,.3.3,0,0,0,.4,0"/><path class="5737aa04-ec5c-49b3-baeb-ee03ee39f4bb" d="M26.4,22.2a.28.28,0,1,0-.4,0c.2.1.3.1.4,0"/><path class="451e5f04-7958-4304-86e9-b77229be5063" d="M22.8,29.2a.28.28,0,1,0,0-.4c-.1.2-.1.3,0,.4"/><path class="451e5f04-7958-4304-86e9-b77229be5063" d="M23.9,28.6a.28.28,0,1,0,0-.4.3.3,0,0,0,0,.4"/><path class="451e5f04-7958-4304-86e9-b77229be5063" d="M24.9,27.8a.28.28,0,1,0,0-.4c-.1.2-.1.3,0,.4"/><path class="451e5f04-7958-4304-86e9-b77229be5063" d="M17.2,30.9c.1.1.2.2.3.1s.2-.2.1-.3-.2-.2-.3-.1a.37.37,0,0,0-.1.3"/><path class="451e5f04-7958-4304-86e9-b77229be5063" d="M18.5,30.7c.1.1.2.2.3.1s.2-.2.1-.3-.2-.2-.3-.1a.19.19,0,0,0-.1.3"/><path class="451e5f04-7958-4304-86e9-b77229be5063" d="M19.7,30.4c.1.1.2.2.3.1s.2-.2.1-.3-.2-.2-.3-.1a.37.37,0,0,0-.1.3"/><path class="5737aa04-ec5c-49b3-baeb-ee03ee39f4bb" d="M23.4,26.4a.28.28,0,1,0,0,.4.3.3,0,0,0,0-.4"/><path class="5737aa04-ec5c-49b3-baeb-ee03ee39f4bb" d="M24.9,26.4a.28.28,0,1,0,0,.4.3.3,0,0,0,0-.4"/><path class="5737aa04-ec5c-49b3-baeb-ee03ee39f4bb" d="M22,26.4a.28.28,0,1,0,0,.4c.1-.2.1-.3,0-.4"/><path class="5737aa04-ec5c-49b3-baeb-ee03ee39f4bb" d="M24.6,21.3a.19.19,0,0,0,.3-.1c0-.1,0-.3-.1-.3s-.3,0-.3.1a.37.37,0,0,0,.1.3"/><path class="5737aa04-ec5c-49b3-baeb-ee03ee39f4bb" d="M23.5,21.8a.22361.22361,0,0,0,.2-.4h0c-.1,0-.3,0-.3.1s-.1.2.1.3"/><path class="5737aa04-ec5c-49b3-baeb-ee03ee39f4bb" d="M18.8,23.8a.22.22,0,1,0-.1-.3c-.1.1,0,.2.1.3"/><path class="5737aa04-ec5c-49b3-baeb-ee03ee39f4bb" d="M17.4,24.3a.22.22,0,1,0-.1-.3c-.1.1,0,.2.1.3"/><path class="5737aa04-ec5c-49b3-baeb-ee03ee39f4bb" d="M20.1,23.2a.22.22,0,1,0-.1-.3c-.1.1,0,.2.1.3"/><path class="5737aa04-ec5c-49b3-baeb-ee03ee39f4bb" d="M21.4,24.1c.1-.1.2-.2.1-.3s-.2-.2-.3-.1-.2.2-.1.3a1,1,0,0,0,.3.1"/><path class="5737aa04-ec5c-49b3-baeb-ee03ee39f4bb" d="M20.9,25.2c.1-.1.2-.2.1-.3s-.2-.2-.3-.1-.2.2-.1.3a.19.19,0,0,0,.23.13h.07"/><path class="5737aa04-ec5c-49b3-baeb-ee03ee39f4bb" d="M18.4,26c.1.1.2.2.3.1s.2-.2.1-.3-.2-.2-.3-.1a.19.19,0,0,0-.1.3"/><path class="5737aa04-ec5c-49b3-baeb-ee03ee39f4bb" d="M17.2,25.5c.1.1.2.2.3.1s.2-.2.1-.3-.2-.2-.3-.1-.2.2-.1.3"/><path class="5737aa04-ec5c-49b3-baeb-ee03ee39f4bb" d="M18,28.5a.32.32,0,0,0-.3.3.27.27,0,0,0,.23669.29963L17.94,29.1H18a.32.32,0,0,0,.3-.3q-.15-.3-.3-.3"/><path class="5737aa04-ec5c-49b3-baeb-ee03ee39f4bb" d="M19,27.4a.3.3,0,1,0,.3.3h0a.32.32,0,0,0-.3-.3"/><path class="5737aa04-ec5c-49b3-baeb-ee03ee39f4bb" d="M17,29.5a.3.3,0,1,0,.3.3h0q-.15-.3-.3-.3"/><path class="5737aa04-ec5c-49b3-baeb-ee03ee39f4bb" d="M19.8,19.7a.3.3,0,1,0-.3.3h0a.27.27,0,0,0,.3-.3"/><path class="5737aa04-ec5c-49b3-baeb-ee03ee39f4bb" d="M20.8,20.8a.3.3,0,1,0-.3.3h0q.3-.15.3-.3"/><path class="5737aa04-ec5c-49b3-baeb-ee03ee39f4bb" d="M18.7,18.7a.3.3,0,1,0-.3.3h0a.27.27,0,0,0,.3-.3"/><path class="5737aa04-ec5c-49b3-baeb-ee03ee39f4bb" d="M17.6,17.6a.3.3,0,1,0-.3.3h0a.27.27,0,0,0,.3-.3"/><circle class="45933e44-5b9f-4d92-905a-0de43fccd671" cx="16.1" cy="16.14" r="9"/><path class="5737aa04-ec5c-49b3-baeb-ee03ee39f4bb" d="M8.67,11.23h3V17.7h3.89v2.63H8.67Z"/><path class="5737aa04-ec5c-49b3-baeb-ee03ee39f4bb" d="M16.41,11.23h4q4.08,0,4.08,3.37T20.38,18h-1v2.38h-3Zm5.08,3.37q0-.9-1.13-.9h-.95v1.78h.95Q21.49,15.48,21.49,14.6Z"/></svg>